<?xml version="1.0" standalone="no"?>
<!DOCTYPE svg PUBLIC "-//W3C//DTD SVG 20010904//EN"
 "http://www.w3.org/TR/2001/REC-SVG-20010904/DTD/svg10.dtd">
<svg version="1.0" xmlns="http://www.w3.org/2000/svg"
 width="1676.000000pt" height="1676.000000pt" viewBox="0 0 1676.000000 1676.000000"
 preserveAspectRatio="xMidYMid meet">
<metadata>
Created by potrace 1.14, written by Peter Selinger 2001-2017
</metadata>
<g transform="translate(0.000000,1676.000000) scale(0.100000,-0.100000)"
fill="#000000" stroke="none">
<path d="M7945 13844 c-22 -2 -98 -9 -170 -14 -1010 -84 -2036 -478 -2854
-1098 -221 -167 -350 -281 -577 -507 -311 -310 -512 -554 -725 -880 -54 -82
-120 -181 -148 -220 -28 -38 -75 -117 -105 -175 -51 -100 -192 -416 -251 -563
-26 -63 -29 -68 -54 -63 -115 23 -599 64 -912 78 -513 22 -895 -14 -1196 -114
-282 -93 -439 -247 -473 -463 -45 -282 154 -685 583 -1185 130 -151 624 -642
817 -811 301 -264 527 -450 827 -680 l157 -121 44 -157 c150 -546 389 -1079
694 -1547 47 -72 88 -146 92 -165 11 -53 63 -121 234 -304 88 -93 216 -231
284 -305 144 -156 287 -290 593 -556 257 -222 292 -249 354 -268 26 -7 85 -38
131 -69 327 -212 777 -428 1183 -566 1547 -527 3263 -348 4662 487 405 242
727 494 1076 842 377 376 654 735 903 1169 175 303 356 708 442 984 l18 57
350 179 c790 401 1323 722 1721 1038 158 125 398 368 469 476 177 267 176 475
-1 658 -174 181 -480 309 -973 409 -372 75 -991 140 -1339 140 l-90 0 -10 38
c-5 20 -19 73 -30 118 -145 575 -414 1179 -744 1673 -232 347 -394 545 -722
879 -211 216 -263 261 -592 509 -792 597 -1728 961 -2773 1079 -136 15 -787
28 -895 18z m2229 -984 c128 -33 228 -91 329 -194 161 -163 325 -383 407 -546
174 -347 366 -1152 435 -1825 24 -244 37 -528 30 -705 -17 -462 -41 -641 -127
-940 -110 -386 -229 -604 -452 -825 -255 -253 -515 -383 -834 -417 -198 -21
-389 12 -568 96 -126 60 -206 116 -294 206 -232 236 -342 563 -327 964 9 232
46 375 165 635 91 200 216 387 346 517 145 145 283 221 476 260 120 24 302 15
425 -20 117 -34 277 -114 344 -171 29 -25 57 -45 62 -45 32 0 17 145 -37 362
-98 389 -261 742 -513 1108 -162 236 -260 348 -411 469 -110 89 -156 150 -202
271 -30 81 -32 92 -32 225 0 130 2 145 28 215 36 95 104 198 164 249 56 49
147 95 222 115 84 22 270 20 364 -4z m-4122 -761 c81 -17 147 -56 210 -122
118 -122 189 -256 246 -467 66 -243 68 -262 167 -1545 45 -580 48 -597 89
-642 36 -40 88 -51 154 -33 66 17 117 70 167 174 89 184 132 350 171 660 27
212 52 310 104 401 48 84 96 132 168 167 58 29 78 33 162 36 79 3 105 0 153
-18 69 -26 166 -112 196 -173 49 -100 45 -392 -8 -601 -51 -199 -114 -322
-301 -586 -82 -115 -116 -180 -134 -260 -23 -97 -16 -107 151 -262 82 -74 202
-180 268 -235 173 -145 293 -275 595 -648 234 -288 446 -511 550 -577 78 -50
156 -75 304 -97 130 -20 167 -31 105 -31 -19 0 -131 -7 -249 -15 -219 -14
-582 -30 -926 -40 l-192 -5 -70 108 c-106 164 -400 643 -473 770 -86 153 -140
218 -214 258 -86 47 -161 64 -287 64 -125 0 -163 -12 -201 -61 -35 -47 -47
-99 -47 -207 0 -128 28 -257 110 -502 72 -215 118 -386 107 -397 -12 -11 -786
50 -815 65 -16 9 -49 136 -252 982 -171 712 -192 790 -353 1350 -58 201 -129
453 -157 560 -29 107 -69 256 -90 330 -112 399 -145 692 -104 931 17 98 69
260 109 338 120 236 369 376 587 330z m3321 -487 c116 -57 193 -171 219 -319
22 -133 -12 -269 -103 -409 -66 -101 -134 -165 -216 -206 -64 -31 -73 -33
-178 -33 -100 0 -115 2 -160 27 -57 30 -124 97 -153 155 -123 240 -33 541 221
745 107 86 246 101 370 40z m-522 -1051 c74 -30 170 -104 218 -169 57 -76 83
-151 83 -243 1 -91 -9 -115 -120 -302 -151 -254 -246 -460 -305 -669 -52 -178
-119 -368 -151 -422 -72 -122 -282 -193 -402 -136 -83 40 -154 188 -169 350
-13 143 25 466 85 719 105 441 294 792 472 877 47 22 63 25 143 21 62 -3 108
-11 146 -26z m-6381 -495 c248 -23 468 -49 479 -56 7 -4 4 -31 -9 -77 -45
-158 -142 -627 -170 -818 -26 -181 -47 -418 -56 -623 l-6 -162 -67 36 c-999
553 -1589 988 -1729 1273 -36 75 -42 163 -13 218 61 120 250 190 616 227 96
10 800 -4 955 -18z m11715 -772 c417 -37 802 -101 994 -164 192 -62 321 -153
337 -235 36 -193 -366 -454 -1131 -738 -120 -44 -510 -177 -521 -177 -1 0 -1
69 -1 153 1 106 -2 159 -11 174 -7 14 -12 62 -12 130 0 229 -45 684 -86 862
l-5 24 133 -7 c73 -3 210 -13 303 -22z m-7662 -2214 c152 -25 272 -126 308
-261 11 -41 10 -50 -4 -73 -22 -32 -53 -40 -105 -27 -42 12 -62 34 -81 93 -26
80 -78 111 -116 68 -29 -32 -11 -66 100 -180 131 -137 157 -184 163 -301 3
-53 0 -102 -8 -125 -63 -201 -341 -265 -592 -138 -96 49 -162 134 -174 228
-13 93 32 216 79 216 8 0 34 -13 58 -30 75 -50 139 -33 139 38 0 19 -17 74
-37 121 -32 73 -38 97 -38 158 0 63 3 76 30 115 35 48 93 85 157 97 59 12 56
12 121 1z m3882 -32 c64 -25 111 -69 141 -133 30 -64 30 -86 -2 -125 -54 -64
-186 -110 -316 -110 -68 0 -79 -2 -89 -21 -18 -34 14 -104 64 -140 84 -61 160
-59 238 7 60 50 91 64 143 64 65 0 103 -36 116 -111 35 -192 -140 -384 -382
-420 -145 -21 -269 18 -363 116 -65 68 -100 133 -125 231 -65 253 37 523 233
619 118 58 234 66 342 23z m-2818 -168 c119 -28 219 -101 274 -202 32 -60 34
-68 33 -158 -2 -180 -74 -295 -209 -336 -27 -8 -102 -19 -165 -23 -138 -11
-165 -20 -173 -58 -8 -39 5 -133 38 -280 26 -117 27 -124 11 -148 -24 -37 -60
-48 -156 -48 -172 -1 -369 54 -441 123 -21 20 -39 45 -39 56 0 10 16 34 35 54
40 41 75 133 149 391 77 268 81 336 26 386 -16 14 -32 34 -35 44 -9 29 20 84
57 107 49 30 189 68 298 81 52 6 109 13 125 15 62 7 131 5 172 -4z m1916 -10
c75 -23 129 -74 146 -137 15 -51 14 -69 -5 -109 -29 -61 -90 -65 -184 -10 -67
39 -113 35 -160 -12 -37 -37 -60 -92 -60 -142 1 -87 91 -170 185 -170 41 0 63
7 111 37 44 27 73 37 115 41 51 4 59 2 90 -26 30 -26 33 -36 37 -95 6 -92 -17
-154 -83 -225 -175 -189 -499 -199 -660 -20 -86 95 -125 206 -125 353 0 157
58 303 160 406 113 114 281 156 433 109z m-954 -65 c61 -16 97 -45 118 -94 8
-18 21 -104 29 -190 16 -168 22 -189 125 -408 40 -87 42 -94 30 -132 -24 -81
-116 -141 -248 -161 -74 -12 -81 -11 -220 31 -34 10 -55 11 -101 1 -32 -7 -87
-12 -123 -12 -55 0 -73 5 -119 33 -77 46 -114 109 -118 202 -6 105 23 171 109
258 75 75 169 126 271 147 83 16 103 36 102 98 -2 61 -17 90 -50 98 -38 10
-68 -9 -113 -70 -49 -65 -83 -86 -145 -86 -52 0 -76 24 -76 75 0 36 30 104 56
127 33 29 123 69 187 83 83 18 219 18 286 0z"/>
<path d="M10166 6910 c-60 -18 -106 -83 -85 -122 9 -17 17 -20 53 -15 67 10
147 37 153 53 10 26 -7 64 -37 79 -32 17 -42 17 -84 5z"/>
<path d="M7398 6680 c-41 -32 -78 -195 -55 -240 43 -85 160 -20 182 101 9 50
-23 122 -64 143 -37 20 -33 20 -63 -4z"/>
<path d="M8331 6357 c-54 -27 -83 -146 -46 -187 26 -29 71 -26 91 5 21 32 31
144 15 173 -13 25 -26 27 -60 9z"/>
</g>
</svg>
