<svg xmlns="http://www.w3.org/2000/svg" viewBox="0 0 304 267.7"><defs><style>.cls-1{fill:#fd6085}.cls-4{fill-rule:evenodd}.cls-4,.cls-5{fill:#074785}.cls-6{fill:#fff}</style></defs><g id="OBJECTS"><path class="cls-1" d="M155.39 62.2c-.74-.7-2.2-10.63-3.54-10.55s-2.49 9.93-3.12 10.57c-1.25 1.3-10.4 2.22-10.33 3.49s9.07 1.85 10.34 3.08c.71.68 2.2 10.64 3.53 10.56s2.47-9.89 3.12-10.57c1.21-1.25 10.44-2.22 10.36-3.49s-9.14-1.9-10.36-3.09ZM44.22 205c-.74-.71-2.2-10.63-3.54-10.55s-2.49 9.92-3.12 10.57c-1.25 1.3-10.4 2.22-10.33 3.48s9.07 1.86 10.33 3.09c.72.68 2.21 10.64 3.54 10.56s2.47-9.9 3.12-10.57c1.21-1.26 10.43-2.23 10.36-3.49s-9.14-1.93-10.36-3.09ZM245.84 214.64c-.74-.71-2.2-10.63-3.54-10.56s-2.49 9.93-3.12 10.58c-1.25 1.3-10.4 2.22-10.32 3.48s9.06 1.86 10.33 3.08c.71.69 2.2 10.64 3.53 10.57s2.47-9.9 3.12-10.57c1.21-1.26 10.44-2.23 10.36-3.49s-9.14-1.9-10.36-3.09Z"/><path d="M30.08 129.72C37.73 119.2 50.88 145 58.34 150c-.66-2.86-1.11-6.24-1.51-8-2.94-13.19-5.94-26.37-7.63-39.82-2.28-18.25-2.52-41.28 7.87-57.41 2.76-4.28 10.8-13 14.17-4.32 3.94-8.11 14.15-26.74 24-10.34 9.37-10.6 16.9-1.92 17.21 9.63.12 6.46-.76 10.8-1.94 21.24 1.21-2 3.62-5 6-5.47 4.85-1 8 6.18 9.15 9.93 1.41 4.73 1.64 9.69 2.28 14.57a166.57 166.57 0 0 0 3.34 18.29c4.37 17.76 9.66 35.15 14.52 52.76 4.31 15.63 9 32.64 7.21 49-.9 8-2.18 17.5-7.16 24.13-14 18.69-61.14 8.39-70.8-10.54-3.62-7.08-4.57-15.15-8.74-22-6.52-10.65-16.85-18.27-25.14-27.23-6.71-7.26-18.63-24.34-11.09-34.7Z" style="fill-rule:evenodd;fill:#f29268"/><path d="M263.81 150.55c-7.14-10.47-21.6 13.63-29.32 18.11.8-2.71 1.42-5.94 1.91-7.64 3.61-12.52 7.27-25 9.63-37.86 3.2-17.42 4.59-39.53-5-55.52-2.55-4.23-10.18-13-14-4.82-3.55-8-12.85-26.36-23.48-11.07-8.87-10.64-16.84-2.66-17.73 8.42-.44 6.2.22 10.41.89 20.49-1.12-2-3.38-5-5.73-5.54-4.82-1.17-8.36 5.55-9.67 9.1-1.64 4.47-2.13 9.22-3 13.87-1.11 5.91-3.31 21.16-5.12 26.91-5.27 16.85-10.57 23.84-16.31 40.52-5.1 14.8-10.71 30.91-9.68 46.73.51 7.67 1.32 16.9 6 23.51 7.45 10.58 24 11.49 35.6 10 12.27-1.59 28.91-5.12 35.86-16.72 4-6.61 5.33-14.32 9.85-20.7 7-9.88 17.73-16.72 26.48-24.93 7.06-6.72 19.86-22.55 12.82-32.86Z" style="fill:#f7db81;fill-rule:evenodd"/><path class="cls-4" d="M178.71 90.62c5.77 1.47 6.78-5.72 6.33-12.43a8.4 8.4 0 0 0-4-3.07c-2.63-.64-4.88 1.07-6.59 3.34.2 5.11.82 11.35 4.26 12.16ZM188.75 50.84c.36 1.14.68 2.31 1.05 3.55 1 3.3 1.68 8.76 5.79 9 7.71.56 6.61-8.25 4.25-15.14a11.24 11.24 0 0 0-1-.61 12 12 0 0 0-3.23-.93c-2.77-.09-5.13 1.51-6.86 4.13ZM209.09 46.54c1.8 6.18 4.38 15.21 9.38 14.47 2.94-.49 3.82-4.06 3.93-7-3.4-5.35-8.09-9.91-13.31-7.47ZM229.46 59.91a70.47 70.47 0 0 1 3.74 7.35c1.12 3.2 3.05 6.88 6.89 5.12a5.78 5.78 0 0 0 2.44-2c-.47-.94-1-1.86-1.51-2.76-2.08-3.44-7.55-9.88-11.56-7.71ZM263.81 150.55a6.83 6.83 0 0 0-1.56-1.67c-.57 2.74-1.68 4.86-3 8.09-1.28 3.63-4.06 10-.86 13.23a4.59 4.59 0 0 0 2.39 1.39c4.42-6.92 7.22-14.94 3.03-21.04Z"/><path class="cls-5" d="M188.14 83.91c3.24 17 1.8 34.05-1.53 51-.47 2.41 3.2 3.56 3.69 1.13 3.45-17.59 4.95-35.29 1.59-53-.46-2.44-4.21-1.52-3.75.91ZM203.82 55.22c6.84 24.93 9.73 50.9 5.4 76.54-.41 2.42 3.27 3.58 3.68 1.14 4.46-26.37 1.7-52.93-5.34-78.6-.65-2.38-4.4-1.49-3.74.92ZM226.27 67.14c6.82 18.87 4.87 42.53 3.25 62.22-.2 2.48 3.65 2.58 3.85.11 1.64-20 3.6-44-3.36-63.25-.84-2.3-4.59-1.42-3.74.92ZM234.37 178a51.46 51.46 0 0 0 2.9-8.34c.52-2.41-3.16-3.56-3.68-1.13a51.8 51.8 0 0 1-2.9 8.34c-.93 2.31 2.76 3.42 3.68 1.13ZM55.42 148.81c6.19 6.08 13.65 8 21.77 10.45 11 3.26 16.29 10.2 19.07 20.94.61 2.37 4.44 1.84 3.81-.57-2.06-8-5-14.66-11.8-19.61-9.43-6.88-21.8-5.71-30.52-14.27-1.77-1.74-4.08 1.35-2.33 3.06ZM66.62 39.55c7.45 6.09 3.6 22.31 3.6 30.75 0 12.42-.33 25.75 3.38 37.71.73 2.34 4.53 1.67 3.8-.7-4.31-13.83-3.78-29.82-3.11-44.23.39-8.44 1.93-20.65-5.44-26.67-1.93-1.58-4.14 1.58-2.23 3.14ZM88.15 28.17c7.38 6.51 3.43 24 3.37 33.13-.1 13.38-.52 27.76 3.1 40.62.71 2.52 4.5 1.77 3.78-.78-4.19-14.88-3.55-32.14-2.78-47.66.45-9.1 2.07-22.27-5.23-28.71-1.91-1.69-4.13 1.74-2.24 3.4Z"/><path class="cls-4" d="M82.35 135.55a7.47 7.47 0 1 1-6.73-8.16 7.46 7.46 0 0 1 6.73 8.16ZM132.56 128.12a7.47 7.47 0 1 1-6.72-8.15 7.47 7.47 0 0 1 6.72 8.15ZM107.49 133.23c-1.25 6.25-10.32 6.72-14 2.5-1.76-2-5 .62-3.21 2.64 6.22 7.16 19.36 5 21.33-4.74.55-2.63-3.61-3-4.12-.4ZM219.85 171.6a7.2 7.2 0 1 1-10.08-1.39 7.18 7.18 0 0 1 10.08 1.39ZM166.92 169.49a7.2 7.2 0 1 1-10.09-1.38 7.21 7.21 0 0 1 10.09 1.38Z"/><path class="cls-5" d="M178.09 180.17c3.16 1.1 5.85 3 9.28 2.79 2.85-.19 5.86-1.6 8.54-2.48 2.49-.8 5.13-1 6.84 1.32 2.39 3.18 2.69 8.53 1.44 12.2a18 18 0 0 1-7.19 9 19.7 19.7 0 0 1-5.73 2.62c-8.92 2.12-17.34-2.92-21.59-10.78-3.88-6.84-1.07-17.97 8.41-14.67Z"/><path class="cls-1" d="M170.78 196.63a15.73 15.73 0 0 1 9.11-3.74c8.08-.66 11.06 6.37 10.17 13-7.75 1.25-15.01-2.79-19.28-9.26Z"/><path class="cls-5" d="M108.86 59.2c0 7-.27 14 0 21a114.92 114.92 0 0 0 2.66 21.06c.44 2 3.53 1.16 3.09-.85A111.84 111.84 0 0 1 112 80.19c-.26-7 0-14 0-21a1.6 1.6 0 0 0-3.2 0Z"/><path class="cls-6" d="M53.5 161.4c-6-4.6-10.64-10.8-14.83-17.07-1.71-2.56-5.87-.15-4.14 2.43 4.68 7 9.79 13.66 16.55 18.79a2.4 2.4 0 0 0 3.28-.86 2.46 2.46 0 0 0-.86-3.29ZM59 166.84c-3.09 0-3.09 4.8 0 4.8s3.11-4.8 0-4.8ZM59.5 47.31a43.35 43.35 0 0 0-4.72 10c-1 3 3.69 4.21 4.63 1.28a37.93 37.93 0 0 1 4.24-8.82c1.67-2.65-2.49-5.06-4.15-2.46ZM55.17 64.27c-3.09 0-3.09 4.8 0 4.8s3.1-4.8 0-4.8ZM173.25 110.74c-1.29 11.51-5.14 22.25-10.12 32.64-1.34 2.79 2.92 5 4.26 2.21 5.15-10.74 9.22-21.92 10.55-33.81.35-3.05-4.34-4.11-4.69-1.04ZM175.33 100.42c-3.09.16-2.85 5 .24 4.8s2.86-4.96-.24-4.8ZM162.22 149.6c-3.1.16-2.85 5 .24 4.8s2.85-4.95-.24-4.8ZM244.48 83.11c-.54-3-5.17-1.75-4.63 1.28 1 5.4 2.11 10.81 1.84 16.33-.15 3.1 4.65 3.08 4.8 0 .29-5.93-.97-11.81-2.01-17.61ZM152 231.68c-4.35-10.35-6.58-21.83-4.48-33 .56-3-4.06-4.32-4.64-1.28-2.25 12-.21 24.35 4.49 35.54a2.46 2.46 0 0 0 3 1.68 2.41 2.41 0 0 0 1.63-2.94ZM146.43 186.37c-3.1 0-3.1 4.8 0 4.8s3.1-4.8 0-4.8ZM141.7 155.15c-1.67-4.42-2.91-9-4.48-13.44-1-2.9-5.67-1.66-4.63 1.27 1.57 4.46 2.8 9 4.48 13.45 1.09 2.87 5.73 1.63 4.63-1.28ZM88.06 214c-5.68-4-6.77-12.29-10-18-1.53-2.69-5.67-.27-4.14 2.42 3.84 6.78 5 15 11.74 19.76 2.5 1.82 4.9-2.37 2.4-4.18ZM94.53 216.9c-3.1 0-3.1 4.81 0 4.81s3.1-4.81 0-4.81Z"/></g></svg>