<svg xmlns="http://www.w3.org/2000/svg" viewBox="0 0 304 267.7"><defs><style>.cls-1{fill:#fd6085;}.cls-2{fill:#f29268;}.cls-2,.cls-3,.cls-4{fill-rule:evenodd;}.cls-3{fill:#f7db81;}.cls-4,.cls-5{fill:#074785;}.cls-6{fill:#fff;}</style></defs><g id="OBJECTS"><path class="cls-1" d="M155.39,62.2c-.74-.7-2.2-10.63-3.54-10.55s-2.49,9.93-3.12,10.57c-1.25,1.3-10.4,2.22-10.33,3.49s9.07,1.85,10.34,3.08c.71.68,2.2,10.64,3.53,10.56s2.47-9.89,3.12-10.57c1.21-1.25,10.44-2.22,10.36-3.49S156.61,63.39,155.39,62.2Z"/><path class="cls-1" d="M44.22,205c-.74-.71-2.2-10.63-3.54-10.55s-2.49,9.92-3.12,10.57c-1.25,1.3-10.4,2.22-10.33,3.48s9.07,1.86,10.33,3.09c.72.68,2.21,10.64,3.54,10.56s2.47-9.9,3.12-10.57c1.21-1.26,10.43-2.23,10.36-3.49S45.44,206.16,44.22,205Z"/><path class="cls-1" d="M245.84,214.64c-.74-.71-2.2-10.63-3.54-10.56s-2.49,9.93-3.12,10.58c-1.25,1.3-10.4,2.22-10.32,3.48s9.06,1.86,10.33,3.08c.71.69,2.2,10.64,3.53,10.57s2.47-9.9,3.12-10.57c1.21-1.26,10.44-2.23,10.36-3.49S247.06,215.83,245.84,214.64Z"/><path class="cls-2" d="M30.08,129.72C37.73,119.2,50.88,145,58.34,150c-.66-2.86-1.11-6.24-1.51-8-2.94-13.19-5.94-26.37-7.63-39.82-2.28-18.25-2.52-41.28,7.87-57.41,2.76-4.28,10.8-13,14.17-4.32,3.94-8.11,14.15-26.74,24-10.34,9.37-10.6,16.9-1.92,17.21,9.63.12,6.46-.76,10.8-1.94,21.24,1.21-2,3.62-5,6-5.47,4.85-1,8,6.18,9.15,9.93,1.41,4.73,1.64,9.69,2.28,14.57a166.57,166.57,0,0,0,3.34,18.29c4.37,17.76,9.66,35.15,14.52,52.76,4.31,15.63,9,32.64,7.21,49-.9,8-2.18,17.5-7.16,24.13-14,18.69-61.14,8.39-70.8-10.54-3.62-7.08-4.57-15.15-8.74-22C59.79,181,49.46,173.38,41.17,164.42,34.46,157.16,22.54,140.08,30.08,129.72Z"/><path class="cls-3" d="M263.81,150.55c-7.14-10.47-21.6,13.63-29.32,18.11.8-2.71,1.42-5.94,1.91-7.64,3.61-12.52,7.27-25,9.63-37.86,3.2-17.42,4.59-39.53-5-55.52-2.55-4.23-10.18-13-14-4.82-3.55-8-12.85-26.36-23.48-11.07-8.87-10.64-16.84-2.66-17.73,8.42-.44,6.2.22,10.41.89,20.49-1.12-2-3.38-5-5.73-5.54-4.82-1.17-8.36,5.55-9.67,9.1-1.64,4.47-2.13,9.22-3,13.87C167.2,104,165,119.25,163.19,125c-5.27,16.85-10.57,23.84-16.31,40.52-5.1,14.8-10.71,30.91-9.68,46.73.51,7.67,1.32,16.9,6,23.51,7.45,10.58,24,11.49,35.6,10,12.27-1.59,28.91-5.12,35.86-16.72,4-6.61,5.33-14.32,9.85-20.7,7-9.88,17.73-16.72,26.48-24.93C258.05,176.69,270.85,160.86,263.81,150.55Z"/><path class="cls-4" d="M178.71,90.62c5.77,1.47,6.78-5.72,6.33-12.43a8.4,8.4,0,0,0-4-3.07c-2.63-.64-4.88,1.07-6.59,3.34C174.65,83.57,175.27,89.81,178.71,90.62Z"/><path class="cls-4" d="M188.75,50.84c.36,1.14.68,2.31,1.05,3.55,1,3.3,1.68,8.76,5.79,9,7.71.56,6.61-8.25,4.25-15.14a11.24,11.24,0,0,0-1-.61,12,12,0,0,0-3.23-.93C192.84,46.62,190.48,48.22,188.75,50.84Z"/><path class="cls-4" d="M209.09,46.54c1.8,6.18,4.38,15.21,9.38,14.47,2.94-.49,3.82-4.06,3.93-7C219,48.66,214.31,44.1,209.09,46.54Z"/><path class="cls-4" d="M229.46,59.91a70.47,70.47,0,0,1,3.74,7.35c1.12,3.2,3.05,6.88,6.89,5.12a5.78,5.78,0,0,0,2.44-2c-.47-.94-1-1.86-1.51-2.76C238.94,64.18,233.47,57.74,229.46,59.91Z"/><path class="cls-4" d="M263.81,150.55a6.83,6.83,0,0,0-1.56-1.67c-.57,2.74-1.68,4.86-3,8.09-1.28,3.63-4.06,10-.86,13.23a4.59,4.59,0,0,0,2.39,1.39C265.2,164.67,268,156.65,263.81,150.55Z"/><path class="cls-5" d="M188.14,83.91c3.24,17,1.8,34.05-1.53,51-.47,2.41,3.2,3.56,3.69,1.13,3.45-17.59,4.95-35.29,1.59-53-.46-2.44-4.21-1.52-3.75.91Z"/><path class="cls-5" d="M203.82,55.22c6.84,24.93,9.73,50.9,5.4,76.54-.41,2.42,3.27,3.58,3.68,1.14,4.46-26.37,1.7-52.93-5.34-78.6-.65-2.38-4.4-1.49-3.74.92Z"/><path class="cls-5" d="M226.27,67.14c6.82,18.87,4.87,42.53,3.25,62.22-.2,2.48,3.65,2.58,3.85.11,1.64-20,3.6-44-3.36-63.25-.84-2.3-4.59-1.42-3.74.92Z"/><path class="cls-5" d="M234.37,178a51.46,51.46,0,0,0,2.9-8.34c.52-2.41-3.16-3.56-3.68-1.13a51.8,51.8,0,0,1-2.9,8.34c-.93,2.31,2.76,3.42,3.68,1.13Z"/><path class="cls-5" d="M55.42,148.81c6.19,6.08,13.65,8,21.77,10.45,11,3.26,16.29,10.2,19.07,20.94.61,2.37,4.44,1.84,3.81-.57-2.06-8-5-14.66-11.8-19.61-9.43-6.88-21.8-5.71-30.52-14.27-1.77-1.74-4.08,1.35-2.33,3.06Z"/><path class="cls-5" d="M66.62,39.55c7.45,6.09,3.6,22.31,3.6,30.75,0,12.42-.33,25.75,3.38,37.71.73,2.34,4.53,1.67,3.8-.7-4.31-13.83-3.78-29.82-3.11-44.23.39-8.44,1.93-20.65-5.44-26.67-1.93-1.58-4.14,1.58-2.23,3.14Z"/><path class="cls-5" d="M88.15,28.17c7.38,6.51,3.43,24,3.37,33.13-.1,13.38-.52,27.76,3.1,40.62.71,2.52,4.5,1.77,3.78-.78C94.21,86.26,94.85,69,95.62,53.48c.45-9.1,2.07-22.27-5.23-28.71-1.91-1.69-4.13,1.74-2.24,3.4Z"/><path class="cls-4" d="M82.35,135.55a7.47,7.47,0,1,1-6.73-8.16A7.46,7.46,0,0,1,82.35,135.55Z"/><path class="cls-4" d="M132.56,128.12a7.47,7.47,0,1,1-6.72-8.15A7.47,7.47,0,0,1,132.56,128.12Z"/><path class="cls-4" d="M107.49,133.23c-1.25,6.25-10.32,6.72-14,2.5-1.76-2-5,.62-3.21,2.64,6.22,7.16,19.36,5,21.33-4.74C112.16,131,108,130.63,107.49,133.23Z"/><path class="cls-4" d="M219.85,171.6a7.2,7.2,0,1,1-10.08-1.39A7.18,7.18,0,0,1,219.85,171.6Z"/><path class="cls-4" d="M166.92,169.49a7.2,7.2,0,1,1-10.09-1.38A7.21,7.21,0,0,1,166.92,169.49Z"/><path class="cls-5" d="M178.09,180.17c3.16,1.1,5.85,3,9.28,2.79,2.85-.19,5.86-1.6,8.54-2.48,2.49-.8,5.13-1,6.84,1.32,2.39,3.18,2.69,8.53,1.44,12.2a18,18,0,0,1-7.19,9,19.7,19.7,0,0,1-5.73,2.62c-8.92,2.12-17.34-2.92-21.59-10.78C165.8,188,168.61,176.87,178.09,180.17Z"/><path class="cls-1" d="M170.78,196.63a15.73,15.73,0,0,1,9.11-3.74c8.08-.66,11.06,6.37,10.17,13C182.31,207.14,175.05,203.1,170.78,196.63Z"/><path class="cls-5" d="M108.86,59.2c0,7-.27,14,0,21a114.92,114.92,0,0,0,2.66,21.06c.44,2,3.53,1.16,3.09-.85A111.84,111.84,0,0,1,112,80.19c-.26-7,0-14,0-21a1.6,1.6,0,0,0-3.2,0Z"/><path class="cls-6" d="M53.5,161.4c-6-4.6-10.64-10.8-14.83-17.07-1.71-2.56-5.87-.15-4.14,2.43,4.68,7,9.79,13.66,16.55,18.79a2.4,2.4,0,0,0,3.28-.86A2.46,2.46,0,0,0,53.5,161.4Z"/><path class="cls-6" d="M59,166.84c-3.09,0-3.09,4.8,0,4.8S62.11,166.84,59,166.84Z"/><path class="cls-6" d="M59.5,47.31a43.35,43.35,0,0,0-4.72,10c-1,3,3.69,4.21,4.63,1.28a37.93,37.93,0,0,1,4.24-8.82C65.32,47.12,61.16,44.71,59.5,47.31Z"/><path class="cls-6" d="M55.17,64.27c-3.09,0-3.09,4.8,0,4.8S58.27,64.27,55.17,64.27Z"/><path class="cls-6" d="M173.25,110.74c-1.29,11.51-5.14,22.25-10.12,32.64-1.34,2.79,2.92,5,4.26,2.21,5.15-10.74,9.22-21.92,10.55-33.81C178.29,108.73,173.6,107.67,173.25,110.74Z"/><path class="cls-6" d="M175.33,100.42c-3.09.16-2.85,5,.24,4.8S178.43,100.26,175.33,100.42Z"/><path class="cls-6" d="M162.22,149.6c-3.1.16-2.85,5,.24,4.8S165.31,149.45,162.22,149.6Z"/><path class="cls-6" d="M244.48,83.11c-.54-3-5.17-1.75-4.63,1.28,1,5.4,2.11,10.81,1.84,16.33-.15,3.1,4.65,3.08,4.8,0C246.78,94.79,245.52,88.91,244.48,83.11Z"/><path class="cls-6" d="M152,231.68c-4.35-10.35-6.58-21.83-4.48-33,.56-3-4.06-4.32-4.64-1.28-2.25,12-.21,24.35,4.49,35.54a2.46,2.46,0,0,0,3,1.68A2.41,2.41,0,0,0,152,231.68Z"/><path class="cls-6" d="M146.43,186.37c-3.1,0-3.1,4.8,0,4.8S149.53,186.37,146.43,186.37Z"/><path class="cls-6" d="M141.7,155.15c-1.67-4.42-2.91-9-4.48-13.44-1-2.9-5.67-1.66-4.63,1.27,1.57,4.46,2.8,9,4.48,13.45C138.16,159.3,142.8,158.06,141.7,155.15Z"/><path class="cls-6" d="M88.06,214c-5.68-4-6.77-12.29-10-18-1.53-2.69-5.67-.27-4.14,2.42,3.84,6.78,5,15,11.74,19.76C88.16,220,90.56,215.81,88.06,214Z"/><path class="cls-6" d="M94.53,216.9c-3.1,0-3.1,4.81,0,4.81S97.63,216.9,94.53,216.9Z"/></g></svg>