<svg xmlns="http://www.w3.org/2000/svg" viewBox="0 0 304 267.7"><defs><style>.cls-1{fill:#29aefd;}.cls-2{fill:#f9b7be;}.cls-3,.cls-4{fill:#074785;}.cls-3{fill-rule:evenodd;}.cls-5{fill:#fff;}</style></defs><g id="OBJECTS"><path class="cls-1" d="M72.77,159c-.81-.71-2.43-10.7-3.9-10.62s-2.75,10-3.44,10.64c-1.38,1.31-11.48,2.24-11.4,3.51s10,1.86,11.4,3.1c.79.69,2.43,10.7,3.9,10.62s2.73-10,3.44-10.63c1.34-1.26,11.51-2.24,11.43-3.51S74.12,160.22,72.77,159Z"/><path class="cls-1" d="M173.09,62.29c-.81-.71-2.43-10.7-3.9-10.62s-2.75,10-3.44,10.64c-1.38,1.31-11.48,2.23-11.4,3.5s10,1.87,11.4,3.1c.79.69,2.43,10.71,3.9,10.63s2.73-10,3.44-10.63c1.34-1.27,11.51-2.24,11.43-3.52S174.43,63.48,173.09,62.29Z"/><path class="cls-1" d="M227.06,209.79c-.81-.72-2.43-10.7-3.89-10.62s-2.76,10-3.45,10.64c-1.38,1.31-11.48,2.23-11.39,3.5s10,1.86,11.4,3.1c.78.69,2.42,10.7,3.89,10.63s2.73-10,3.45-10.63c1.33-1.27,11.51-2.24,11.42-3.52S228.41,211,227.06,209.79Z"/><path class="cls-2" d="M238.8,141.91c-4.25-2.37-9.86.7-13.54,2.67-12,6.47-21.47,17.46-35,21.66a28.11,28.11,0,0,1-11.17,1.16c-9.32-1.16-21.81-7.34-22.66-17-.84-9.27,11.65-29.35,21.81-30.89,5.87-1,11.68,2.14,16.44,4.88,10,5.77,20.59,13,32,16.22,3.05.87,10.71,1.57,11.62-2.56,1-4.29-2.27-8.87-4.81-12.22a116.44,116.44,0,0,0-10.73-11.74c-10.9-10.9-22.81-27.6-41.16-26.77-8,.36-15.8,3.48-22.68,7-2.29,1.17-12.08,7.39-19.36,12.71C138,77.43,138,62.43,138,40.17c0-5.29.75-11.42-.75-16.51-1.74-5.94-9.21-7.43-12.54-2.37-3.08,4.67-4.55,10.82-5.57,16.14-1.46,7.62-1.81,15.36-2.93,23-1.09,7.41-1.64,12.48-3.62,22.2-4.12-10-8.08-20.11-12.79-29.92C96.55,45.88,93,37.44,87.35,31.85c-2.6-2.6-7-4.24-10.9-3-9.26,3.05-1,23.13.87,28,3.75,9.58,7,19.33,10.23,29.08.38,1.17.76,2.34,1.13,3.51.28.88.61,2,1.07,3.42-1.44-1.35-8.89-14.28-14.39-21.23-2.4-3-4.8-7-9.63-6.63a5.59,5.59,0,0,0-4.85,4.62c-.37,3.09.83,6.48,1.76,9.41,2.43,7.73,5.94,15.23,9.23,22.66,2.66,6,5.55,12,7.72,18.21,6.78,19.3,20.75,37.06,22,57.91.53,8.75.33,17.47.55,26.22.27,10.44.64,15.9,10.88,22.83,10.88,7.35,28.32,11.45,41.5,9,15.68-2.91,24.38-9.48,33.3-20.54,5.22-6.48,10.55-14.86,17.23-20.14C211.42,190.18,254.05,150.41,238.8,141.91Z"/><path class="cls-3" d="M82.19,45.9c3.28-4.19-.07-12.33-4.86-17.25a6.7,6.7,0,0,0-.88.23c-6.63,2.18-4.29,13.1-1.73,20.91A10.51,10.51,0,0,0,82.19,45.9Z"/><path class="cls-3" d="M119.77,34.5a8.39,8.39,0,0,0,5.28.23c6-1.65,6.1-10,6.48-16.39a6.56,6.56,0,0,0-6.79,2.95C122.22,25.12,120.77,30,119.77,34.5Z"/><path class="cls-3" d="M68.54,78.15c1.88-2.86-1.14-8.48-4.76-12.55a5.62,5.62,0,0,0-2.9,4c-.37,3.09.83,6.48,1.76,9.41.3,1,.63,1.95,1,2.92A10.73,10.73,0,0,0,68.54,78.15Z"/><path class="cls-3" d="M232.25,136.25c1.79,1.27,4,2.49,5.87,2.42a3.63,3.63,0,0,0,.2-.61c1-4.29-2.27-8.87-4.81-12.22-1.12-1.48-2.32-2.9-3.56-4.29-2.91,1.27-6.28,3.39-6.53,5.2C223.07,130,229.78,134.48,232.25,136.25Z"/><path class="cls-3" d="M240.11,142.84c-3.68,5.41-12.84,15.11-5,19.18.22.12.44.22.65.32C241.35,154.12,244.27,146.6,240.11,142.84Z"/><path class="cls-4" d="M89.92,95.23c3.3,6.44,6.85,12.76,10.24,19.15,1.15,2.17,4.68.28,3.54-1.88-3.39-6.4-7-12.72-10.25-19.15-1.12-2.19-4.65-.29-3.53,1.88Z"/><path class="cls-4" d="M109.36,79.81A169.87,169.87,0,0,1,110.89,102c0,2.4,4.11,2.41,4.1,0a171.64,171.64,0,0,0-1.54-22.19c-.32-2.36-4.42-2.39-4.09,0Z"/><path class="cls-3" d="M126.27,184.31c-6-.07-10.49,4.17-10.63,9.52-.07,2.4,4,2.5,4.07.11.09-3.41,2.67-5.84,6.44-5.91s6,2.3,5.79,5.59c-.18,2.39,3.9,2.49,4.08.1C136.42,188.35,132.09,184.38,126.27,184.31Z"/><path class="cls-3" d="M184.2,182.2c-6-.06-10.49,4.18-10.63,9.52-.06,2.4,4,2.5,4.07.11.09-3.41,2.68-5.84,6.45-5.91s6,2.3,5.79,5.59c-.18,2.4,3.89,2.49,4.07.11C194.35,186.25,190,182.27,184.2,182.2Z"/><path class="cls-3" d="M162.05,193.28c-.11,3.77-2.51,6.55-6.82,6.62s-7.67-2-7.67-6.05c0-2.39-4.06-2.5-4.07-.1,0,6.18,5.19,9.71,11.62,9.86a10.36,10.36,0,0,0,11-10.22C166.19,191,162.12,190.89,162.05,193.28Z"/><path class="cls-5" d="M199.9,98.76c-7.13-3.9-14.43-7.44-23-6.09-8.39,1.34-15.68,6-23.24,9.31-3.09,1.33-.4,5.5,2.67,4.17,6.71-2.9,13-6.75,20.22-8.47,7.66-1.81,14.32,1.77,20.67,5.25C200.16,104.54,202.82,100.36,199.9,98.76Z"/><path class="cls-5" d="M206.33,103.8a2.42,2.42,0,1,0,0,4.83A2.42,2.42,0,1,0,206.33,103.8Z"/><path class="cls-5" d="M148.4,108.52a2.42,2.42,0,1,0,0,4.83A2.42,2.42,0,1,0,148.4,108.52Z"/><path class="cls-5" d="M119.57,51.37c-.33,5.37-.35,10.74-.35,16.11,0,3.11,5.3,3.11,5.3,0,0-5.37,0-10.74.35-16.11C125.06,48.26,119.76,48.27,119.57,51.37Z"/><path class="cls-5" d="M112.06,163.47a50.49,50.49,0,0,0-12-23,2.83,2.83,0,0,0-3.74,0,2.31,2.31,0,0,0,0,3.42A45.84,45.84,0,0,1,107,164.76C107.58,167.82,112.69,166.52,112.06,163.47Z"/><path class="cls-5" d="M110.92,171.69a2.42,2.42,0,1,0,0,4.83A2.42,2.42,0,1,0,110.92,171.69Z"/><path class="cls-5" d="M216.9,155.21c-4.6,3.53-8.93,7.74-14.54,9.93a2.32,2.32,0,0,0-1,3.31,2.89,2.89,0,0,0,3.63.87c6-2.34,10.69-6.92,15.61-10.69C223.27,156.62,219.5,153.22,216.9,155.21Z"/><path class="cls-5" d="M224.66,149.57a2.42,2.42,0,1,0,0,4.83A2.42,2.42,0,1,0,224.66,149.57Z"/></g></svg>