<svg xmlns="http://www.w3.org/2000/svg" viewBox="0 0 304 267.7"><defs><style>.cls-1{fill:#a089e4;}.cls-2{fill:#f7799d;}.cls-3,.cls-4{fill:#074785;}.cls-4{fill-rule:evenodd;}.cls-5{fill:#fff;}</style></defs><g id="OBJECTS"><path class="cls-1" d="M177.93,56.46c-.86-.77-2.58-11.55-4.15-11.47s-2.93,10.79-3.66,11.49c-1.47,1.41-12.2,2.41-12.12,3.78s10.64,2,12.13,3.36c.83.74,2.58,11.55,4.14,11.47s2.9-10.75,3.67-11.48c1.41-1.37,12.23-2.42,12.15-3.8S179.36,57.75,177.93,56.46Z"/><path class="cls-1" d="M239,214.28c-.86-.77-2.58-11.56-4.14-11.47s-2.94,10.78-3.67,11.49c-1.46,1.41-12.21,2.41-12.12,3.78s10.64,2,12.13,3.35c.83.75,2.58,11.56,4.14,11.47s2.9-10.74,3.67-11.48c1.41-1.36,12.24-2.41,12.15-3.79S240.4,215.57,239,214.28Z"/><path class="cls-1" d="M76.65,216.68c-.86-.77-2.58-11.55-4.14-11.47S69.58,216,68.85,216.7c-1.47,1.42-12.21,2.42-12.12,3.79s10.63,2,12.12,3.35c.83.74,2.58,11.56,4.15,11.47s2.9-10.75,3.66-11.48c1.42-1.36,12.24-2.42,12.15-3.79S78.09,218,76.65,216.68Z"/><path class="cls-2" d="M231.09,41.44c-9.94-9.94-16.27,10.37-18.53,17.29-5.5,17.52-6.55,37.52-15.37,53.87-1.58-10.1-1.36-16.4-9-21.45-7.23-4.76-15.37,1.73-19.89,6-8.58-13.4-18.22-17.14-29.07-2-4.52-17.29-5.47-36.7-7.08-54.17-.68-7.41-1.37-16.83-6-23.13-4.33-5.9-12.5-5.35-16.66.41-7.75,10.71-7.87,24.07-8.3,36.49-.24,6.84,7.26,86.81-12.72,79.84-6.74-2.35-13.22-12.57-17.12-18.12-5.09-7.25-11-15.92-18.38-20.86-9.1-6.09-14.72,2.7-13.63,11,4.1,31.34,22.1,50.7,40.88,75.18,5.86,7.64,11.39,15.06,16.85,22.82,6.53,9.27,7.82,22.74,16.52,30.29,8.4,7.3,22.64,9,33.63,9.48,14.55.65,38.43-.83,47.07-13.91,5.42-8.21,7.45-19.66,12-27.88,5-9.94,9.49-17.72,13.11-28.09,5.42-16.43,6-30.69,5.57-47.55,0-10.42,2.55-20.59,4.83-30.71A212.79,212.79,0,0,0,235.06,61C235.37,54.85,235.91,46.26,231.09,41.44Z"/><path class="cls-3" d="M195,110.91a71.22,71.22,0,0,1-4.18,19.35,68.9,68.9,0,0,1-6.59,13.16c-2.56,4.07-17.49,15.67-17.76,1.3-.3-15.84,2.12-32.24,3-48.09.15-2.44-3.93-2.64-4.07-.21-.85,14.55-1.24,29.2-2.62,43.71-.26,2.71-.6,6.45.3,9.52-15.13,12.94-18.51-11.89-19.66-19.94-1.56-11-1.1-22.21-.51-33.23.13-2.43-3.95-2.64-4.08-.2-.88,16.31-2.05,35.26,4.29,50.88,4.19,10.32,13.53,12.37,21.9,5.93A7.25,7.25,0,0,0,169.3,155c21.45,3,28.77-29.87,29.8-43.93C199.29,108.68,195.21,108.48,195,110.91Z"/><path class="cls-4" d="M123.83,179.24c-1.38,5.55-7.36,9-13.35,7.73s-9.73-6.81-8.35-12.36,7.35-9,13.35-7.73S125.21,173.69,123.83,179.24Z"/><path class="cls-4" d="M199.44,178.12c-1.38,5.55-7.36,9-13.35,7.73s-9.73-6.81-8.35-12.36,7.35-9,13.35-7.73S200.82,172.57,199.44,178.12Z"/><path class="cls-4" d="M161.42,180.6c-3.07,8.31-16.56,7.33-21.15.9-2.2-3.08-7.45-.05-5.24,3,7.79,10.91,27.61,10.34,32.42-2.66C168.74,178.39,162.7,177.14,161.42,180.6Z"/><path class="cls-5" d="M87.61,175.94a2.61,2.61,0,1,0,0,5.22A2.61,2.61,0,1,0,87.61,175.94Z"/><path class="cls-5" d="M60.64,133.31a2.61,2.61,0,1,0,0,5.22A2.61,2.61,0,1,0,60.64,133.31Z"/><path class="cls-5" d="M105.57,60.77V92.6c0,3.37,5.64,3.37,5.64,0V60.77C111.21,57.41,105.57,57.41,105.57,60.77Z"/><path class="cls-5" d="M108.39,47.21a2.61,2.61,0,1,0,0,5.21A2.61,2.61,0,1,0,108.39,47.21Z"/><path class="cls-5" d="M217.61,147.75c-.2-1.42-2.13-2.16-3.46-1.83a2.66,2.66,0,0,0-2,3.21c1.46,10-2,19.61-5.64,28.88-1.25,3.17,4.2,4.52,5.44,1.39C216.07,169.09,219.23,158.82,217.61,147.75Z"/><path class="cls-5" d="M214.33,135.92a2.61,2.61,0,1,0,0,5.21A2.61,2.61,0,1,0,214.33,135.92Z"/><path class="cls-3" d="M49.88,111.23a55.31,55.31,0,0,0-7.13-15.91c-2.71,2.39-4,6.94-3.44,11.37a92.81,92.81,0,0,0,3,14.31C47.79,118.92,51.07,116.16,49.88,111.23Z"/><path class="cls-5" d="M84.09,167.24c-6.29-7.2-12.8-14.71-16.18-23.55-1.21-3.15-6.66-1.79-5.44,1.39C66.2,154.83,73.16,163,80.1,170.94a3,3,0,0,0,4,0A2.54,2.54,0,0,0,84.09,167.24Z"/></g></svg>